# xmcd CD database file
#
# Track frame offsets:
#	150
#	16683
#	33200
#	50404
#	68565
#	83641
#	101080
#	119297
#	137184
#	153056
#	173739
#	187593
#
# Disc length: 2716 seconds
#
# Revision: 0
# Processed by: cddbd v1.5.2PL0 Copyright (c) Steve Scherf et al.
# Submitted via: CDex 1.70beta2
#
DISCID=830a9a0c
DTITLE=Tim Rushlow - Crazy Life
DYEAR=2002
DGENRE=Country
TTITLE0=Then There's Me
TTITLE1=In The Meantime
TTITLE2=She Misses Him
TTITLE3=Crazy Life
TTITLE4=American Cars
TTITLE5=When You Love Me
TTITLE6=Everything to You
TTITLE7=I Live
TTITLE8=The World Turns
TTITLE9=Love Will (The Package)
TTITLE10=That's How It's Gonna Be
TTITLE11=As Real As Forever
EXTD=YEAR: 2002
EXTT0=
EXTT1=
EXTT2=
EXTT3=
EXTT4=
EXTT5=
EXTT6=
EXTT7=
EXTT8=
EXTT9=
EXTT10=
EXTT11=
PLAYORDER=
